<?xml version="1.0"?>
<svg xmlns="http://www.w3.org/2000/svg" xmlns:xlink="http://www.w3.org/1999/xlink" xmlns:svgjs="http://svgjs.com/svgjs" version="1.1" width="512" height="512" x="0" y="0" viewBox="0 0 512 512" style="enable-background:new 0 0 512 512" xml:space="preserve" class=""><g><rect xmlns="http://www.w3.org/2000/svg" fill="#1c7c7c" height="464" rx="16" width="464" x="24" y="24" data-original="#548aff" style="" class=""/><path xmlns="http://www.w3.org/2000/svg" d="m488 40v32h-464v-32a15.99552 15.99552 0 0 1 16-16h432a15.99552 15.99552 0 0 1 16 16z" fill="#49f2e2" data-original="#4976f2" style="" class=""/><circle xmlns="http://www.w3.org/2000/svg" cx="72" cy="120" fill="#370760" r="16" data-original="#7dafff" style="" class=""/><path xmlns="http://www.w3.org/2000/svg" d="m120 104h208v32h-208z" fill="#6708f3" data-original="#4f7ff7" style="" class=""/><path xmlns="http://www.w3.org/2000/svg" d="m488 168v304a15.99568 15.99568 0 0 1 -16 16h-432a15.99568 15.99568 0 0 1 -16-16v-304z" fill="#370760" data-original="#7dafff" style="" class=""/><g xmlns="http://www.w3.org/2000/svg" fill="#ffc431"><path d="m56 200h112v128h-112z" fill="#755880" data-original="#ffc431" style="" class=""/><path d="m200 200h112v192h-112z" fill="#755880" data-original="#ffc431" style="" class=""/><path d="m344 200h112v152h-112z" fill="#755880" data-original="#ffc431" style="" class=""/><path d="m56 360h112v104h-112z" fill="#755880" data-original="#ffc431" style="" class=""/><path d="m344 384h112v80h-112z" fill="#755880" data-original="#ffc431" style="" class=""/><path d="m200 424h112v40h-112z" fill="#755880" data-original="#ffc431" style="" class=""/></g><path xmlns="http://www.w3.org/2000/svg" d="m472 16h-432a24.0275 24.0275 0 0 0 -24 24v432a24.0275 24.0275 0 0 0 24 24h432a24.0275 24.0275 0 0 0 24-24v-432a24.0275 24.0275 0 0 0 -24-24zm-432 16h432a8.00917 8.00917 0 0 1 8 8v24h-448v-24a8.00917 8.00917 0 0 1 8-8zm440 48v80h-448v-80zm-8 400h-432a8.00917 8.00917 0 0 1 -8-8v-296h448v296a8.00917 8.00917 0 0 1 -8 8z" fill="#000000" data-original="#000000" style="" class=""/><circle xmlns="http://www.w3.org/2000/svg" cx="48" cy="48" r="8" fill="#000000" data-original="#000000" style="" class=""/><circle xmlns="http://www.w3.org/2000/svg" cx="72" cy="48" r="8" fill="#000000" data-original="#000000" style="" class=""/><circle xmlns="http://www.w3.org/2000/svg" cx="96" cy="48" r="8" fill="#000000" data-original="#000000" style="" class=""/><path xmlns="http://www.w3.org/2000/svg" d="m72 144a24 24 0 1 0 -24-24 24.02718 24.02718 0 0 0 24 24zm0-32a8 8 0 1 1 -8 8 8.00917 8.00917 0 0 1 8-8z" fill="#000000" data-original="#000000" style="" class=""/><path xmlns="http://www.w3.org/2000/svg" d="m120 144h208a8.00008 8.00008 0 0 0 8-8v-32a8.00008 8.00008 0 0 0 -8-8h-208a8.00008 8.00008 0 0 0 -8 8v32a8.00008 8.00008 0 0 0 8 8zm200-16h-24v-16h24zm-192-16h152v16h-152z" fill="#000000" data-original="#000000" style="" class=""/><path xmlns="http://www.w3.org/2000/svg" d="m360 112h24v16h-24z" fill="#000000" data-original="#000000" style="" class=""/><path xmlns="http://www.w3.org/2000/svg" d="m400 112h24v16h-24z" fill="#000000" data-original="#000000" style="" class=""/><path xmlns="http://www.w3.org/2000/svg" d="m440 112h24v16h-24z" fill="#000000" data-original="#000000" style="" class=""/><path xmlns="http://www.w3.org/2000/svg" d="m168 192h-112a8.00008 8.00008 0 0 0 -8 8v128a8.00008 8.00008 0 0 0 8 8h112a8.00008 8.00008 0 0 0 8-8v-128a8.00008 8.00008 0 0 0 -8-8zm-8 128h-96v-112h96z" fill="#000000" data-original="#000000" style="" class=""/><path xmlns="http://www.w3.org/2000/svg" d="m312 192h-112a8.00008 8.00008 0 0 0 -8 8v192a8.00008 8.00008 0 0 0 8 8h112a8.00008 8.00008 0 0 0 8-8v-192a8.00008 8.00008 0 0 0 -8-8zm-8 192h-96v-176h96z" fill="#000000" data-original="#000000" style="" class=""/><path xmlns="http://www.w3.org/2000/svg" d="m456 192h-112a8.00008 8.00008 0 0 0 -8 8v152a8.00008 8.00008 0 0 0 8 8h112a8.00008 8.00008 0 0 0 8-8v-152a8.00008 8.00008 0 0 0 -8-8zm-8 152h-96v-136h96z" fill="#000000" data-original="#000000" style="" class=""/><path xmlns="http://www.w3.org/2000/svg" d="m168 352h-112a8.00008 8.00008 0 0 0 -8 8v104h16v-96h96v96h16v-104a8.00008 8.00008 0 0 0 -8-8z" fill="#000000" data-original="#000000" style="" class=""/><path xmlns="http://www.w3.org/2000/svg" d="m456 376h-112a8.00008 8.00008 0 0 0 -8 8v80h16v-72h96v72h16v-80a8.00008 8.00008 0 0 0 -8-8z" fill="#000000" data-original="#000000" style="" class=""/><path xmlns="http://www.w3.org/2000/svg" d="m312 416h-112a8.00008 8.00008 0 0 0 -8 8v40h16v-32h96v32h16v-40a8.00008 8.00008 0 0 0 -8-8z" fill="#000000" data-original="#000000" style="" class=""/></g></svg>
