<?xml version="1.0"?>
<svg xmlns="http://www.w3.org/2000/svg" xmlns:xlink="http://www.w3.org/1999/xlink" xmlns:svgjs="http://svgjs.com/svgjs" version="1.1" width="512" height="512" x="0" y="0" viewBox="0 0 512 512" style="enable-background:new 0 0 512 512" xml:space="preserve" class=""><g><path xmlns="http://www.w3.org/2000/svg" d="m256 0c-141.164062 0-256 114.835938-256 256s114.835938 256 256 256 256-114.835938 256-256-114.835938-256-256-256zm0 0" fill="#faa3fd" data-original="#607d8b" style="" class=""/><path xmlns="http://www.w3.org/2000/svg" d="m256 512c-141.164062 0-256-114.835938-256-256s114.835938-256 256-256 256 114.835938 256 256-114.835938 256-256 256zm0-480c-123.519531 0-224 100.480469-224 224s100.480469 224 224 224 224-100.480469 224-224-100.480469-224-224-224zm0 0" fill="#76e9d4" data-original="#000000" style="" class=""/><path xmlns="http://www.w3.org/2000/svg" d="m346.667969 181.332031h-181.335938c-8.832031 0-16-7.167969-16-16s7.167969-16 16-16h181.335938c8.832031 0 16 7.167969 16 16s-7.167969 16-16 16zm0 0" fill="#76e9d4" data-original="#000000" style="" class=""/><path xmlns="http://www.w3.org/2000/svg" d="m346.667969 272h-181.335938c-8.832031 0-16-7.167969-16-16s7.167969-16 16-16h181.335938c8.832031 0 16 7.167969 16 16s-7.167969 16-16 16zm0 0" fill="#76e9d4" data-original="#000000" style="" class=""/><path xmlns="http://www.w3.org/2000/svg" d="m346.667969 362.667969h-181.335938c-8.832031 0-16-7.167969-16-16s7.167969-16 16-16h181.335938c8.832031 0 16 7.167969 16 16s-7.167969 16-16 16zm0 0" fill="#76e9d4" data-original="#000000" style="" class=""/></g></svg>
