<?xml version="1.0"?>
<svg xmlns="http://www.w3.org/2000/svg" xmlns:xlink="http://www.w3.org/1999/xlink" xmlns:svgjs="http://svgjs.com/svgjs" version="1.1" width="512" height="512" x="0" y="0" viewBox="0 0 512 511" style="enable-background:new 0 0 512 512" xml:space="preserve" class=""><g><path xmlns="http://www.w3.org/2000/svg" d="m289.523438 326.992188h-67.046876c0 103.203124-62.875 156.027343-62.875 156.027343h192.796876s-62.875-52.824219-62.875-156.027343zm0 0" fill="#3e0566" data-original="#426175" style="" class=""/><path xmlns="http://www.w3.org/2000/svg" d="m365.59375 490.582031h-219.1875c-5.277344 0-9.554688-4.277343-9.554688-9.554687 0-16.8125 13.632813-30.441406 30.445313-30.441406h177.40625c16.8125 0 30.445313 13.628906 30.445313 30.441406 0 5.277344-4.277344 9.554687-9.554688 9.554687zm0 0" fill="#cdd6df" data-original="#cdd6df" style="" class=""/><path xmlns="http://www.w3.org/2000/svg" d="m485.183594 386.203125h-458.367188c-10.667968 0-19.316406-8.648437-19.316406-19.3125v-339.574219c0-10.667968 8.648438-19.316406 19.316406-19.316406h458.371094c10.664062 0 19.3125 8.648438 19.3125 19.316406v339.574219c0 10.667969-8.648438 19.3125-19.316406 19.3125zm0 0" fill="#3e0566" data-original="#426175" style="" class=""/><path xmlns="http://www.w3.org/2000/svg" d="m485.183594 8h-53.714844c10.664062 0 19.3125 8.648438 19.3125 19.316406v339.574219c0 10.667969-8.648438 19.3125-19.3125 19.3125h53.714844c10.667968 0 19.316406-8.644531 19.316406-19.3125v-339.574219c0-10.667968-8.648438-19.316406-19.316406-19.316406zm0 0" fill="#620acb" data-original="#2c4456" style="" class=""/><path xmlns="http://www.w3.org/2000/svg" d="m35.5 37h441v263.488281h-441zm0 0" fill="#786085" data-original="#f2f2f2" style="" class=""/><path xmlns="http://www.w3.org/2000/svg" d="m35.5 37h441v49.078125h-441zm0 0" fill="#02a995" data-original="#46d1c0" style="" class=""/><path xmlns="http://www.w3.org/2000/svg" d="m7.5 330.488281v36.402344c0 10.667969 8.648438 19.3125 19.316406 19.3125h458.371094c10.664062 0 19.3125-8.644531 19.3125-19.3125v-36.402344zm0 0" fill="#cdd6df" data-original="#cdd6df" style="" class=""/><path xmlns="http://www.w3.org/2000/svg" d="m504.5 330.488281h-53.71875v36.402344c0 10.667969-8.648438 19.3125-19.3125 19.3125h53.714844c10.667968 0 19.316406-8.644531 19.316406-19.3125zm0 0" fill="#d2ccd3" data-original="#abb2ba" style="" class=""/><path xmlns="http://www.w3.org/2000/svg" d="m200.042969 174.21875c0-4.460938-4.300781-7.964844-7.644531-7.964844-.796876 0-1.753907.160156-2.390626.636719l-41.886718 27.394531c-2.390625 1.59375-3.503906 4.460938-3.503906 6.53125 0 2.070313 1.113281 4.777344 3.503906 6.371094l41.886718 27.394531c.636719.476563 1.59375.636719 2.390626.636719 3.34375 0 7.644531-3.34375 7.644531-7.804688 0-2.070312-.957031-3.820312-2.390625-4.617187l-33.445313-21.980469 33.445313-21.980468c1.433594-.953126 2.390625-2.707032 2.390625-4.617188zm0 0" fill="#100024" data-original="#000000" style="" class=""/><path xmlns="http://www.w3.org/2000/svg" d="m277.132812 125.164062-58.613281 117.0625c-.316406.796876-.476562 1.59375-.476562 2.390626 0 2.867187 2.546875 5.890624 6.210937 5.890624 2.230469 0 4.300782-1.113281 5.257813-3.023437l58.453125-116.585937c.476562-.796876.636718-1.59375.636718-2.550782 0-3.664062-3.503906-6.050781-6.691406-6.050781-2.070312 0-3.820312.796875-4.777344 2.867187zm0 0" fill="#100024" data-original="#000000" style="" class=""/><path xmlns="http://www.w3.org/2000/svg" d="m306.601562 227.414062c0 4.460938 4.140626 7.804688 7.644532 7.804688.792968 0 1.59375-.160156 2.226562-.636719l41.890625-27.394531c2.546875-1.59375 3.503907-4.300781 3.503907-6.371094 0-2.070312-1.113282-4.9375-3.503907-6.53125l-41.886719-27.394531c-.636718-.476563-1.433593-.636719-2.230468-.636719-3.503906 0-7.644532 3.503906-7.644532 7.964844 0 1.910156.957032 3.664062 2.230469 4.621094l33.605469 21.976562-33.605469 21.980469c-1.277343.796875-2.230469 2.546875-2.230469 4.617187zm0 0" fill="#100024" data-original="#000000" style="" class=""/><path xmlns="http://www.w3.org/2000/svg" d="m485.183594.5h-458.367188c-14.789062 0-26.816406 12.03125-26.816406 26.816406v339.574219c0 14.785156 12.027344 26.8125 26.816406 26.8125h178.359375c-5.40625 17.566406-12.96875 34.125-22.558593 49.382813h-15.320313c-20.921875 0-37.945313 17.019531-37.945313 37.941406 0 9.40625 7.652344 17.054687 17.054688 17.054687h219.1875c9.402344 0 17.054688-7.648437 17.054688-17.054687 0-20.921875-17.023438-37.941406-37.945313-37.941406h-15.320313c-9.589843-15.257813-17.152343-31.816407-22.558593-49.382813h178.359375c14.789062 0 26.816406-12.027344 26.816406-26.8125v-339.574219c0-14.785156-12.027344-26.816406-26.816406-26.816406zm-458.367188 15h458.367188c6.515625 0 11.816406 5.300781 11.816406 11.816406v295.671875h-482v-295.671875c0-6.515625 5.300781-11.816406 11.816406-11.816406zm340.832032 465.53125c0 1.128906-.921876 2.054688-2.054688 2.054688h-219.1875c-1.132812 0-2.054688-.921876-2.054688-2.054688 0-12.652344 10.292969-22.945312 22.945313-22.945312h177.40625c12.652344 0 22.945313 10.292968 22.945313 22.945312zm-55.75-37.945312h-111.796876c8.792969-15.417969 15.738282-31.960938 20.71875-49.382813h70.359376c4.980468 17.421875 11.925781 33.964844 20.71875 49.382813zm173.285156-64.382813h-458.367188c-6.515625 0-11.816406-5.296875-11.816406-11.8125v-28.902344h482v28.902344c0 6.511719-5.300781 11.8125-11.816406 11.8125zm0 0" fill="#100024" data-original="#000000" style="" class=""/><path xmlns="http://www.w3.org/2000/svg" d="m35.5 307.988281h441c4.144531 0 7.5-3.359375 7.5-7.5v-116.746093c0-4.140626-3.355469-7.5-7.5-7.5-4.140625 0-7.5 3.359374-7.5 7.5v109.246093h-426v-109.246093c0-4.140626-3.359375-7.5-7.5-7.5-4.144531 0-7.5 3.359374-7.5 7.5v116.746093c0 4.140625 3.355469 7.5 7.5 7.5zm0 0" fill="#100024" data-original="#000000" style="" class=""/><path xmlns="http://www.w3.org/2000/svg" d="m35.5 161.246094c4.140625 0 7.5-3.359375 7.5-7.5v-60.164063h426v60.164063c0 4.140625 3.359375 7.5 7.5 7.5 4.144531 0 7.5-3.359375 7.5-7.5v-116.746094c0-4.140625-3.355469-7.5-7.5-7.5h-441c-4.144531 0-7.5 3.359375-7.5 7.5v116.746094c0 4.140625 3.355469 7.5 7.5 7.5zm433.5-116.746094v34.082031h-426v-34.082031zm0 0" fill="#100024" data-original="#000000" style="" class=""/><g xmlns="http://www.w3.org/2000/svg" fill="#f2f2f2"><path d="m353.554688 68.53125c-3.855469 0-6.992188-3.136719-6.992188-6.992188 0-3.851562 3.136719-6.988281 6.992188-6.988281 3.855468 0 6.992187 3.136719 6.992187 6.988281-.003906 3.855469-3.140625 6.992188-6.992187 6.992188zm0 0" fill="#786085" data-original="#f2f2f2" style="" class=""/><path d="m391.859375 68.53125c-3.851563 0-6.988281-3.136719-6.988281-6.992188 0-3.851562 3.136718-6.988281 6.988281-6.988281 3.855469 0 6.992187 3.136719 6.992187 6.988281 0 3.855469-3.136718 6.992188-6.992187 6.992188zm0 0" fill="#786085" data-original="#f2f2f2" style="" class=""/><path d="m430.167969 68.53125c-3.855469 0-6.992188-3.136719-6.992188-6.992188 0-3.851562 3.136719-6.988281 6.992188-6.988281s6.988281 3.136719 6.988281 6.988281c.003906 3.855469-3.132812 6.992188-6.988281 6.992188zm0 0" fill="#786085" data-original="#f2f2f2" style="" class=""/></g></g></svg>
